<?xml version="1.0" encoding="UTF-8"?>
<!-- Created with Inkscape (http://www.inkscape.org/) -->
<svg width="100mm" height="100mm" version="1.1" viewBox="0 0 100 100" xml:space="preserve" xmlns="http://www.w3.org/2000/svg" xmlns:xlink="http://www.w3.org/1999/xlink"><defs><radialGradient id="radialGradient9" cx="50.607" cy="13.103" r="49.961" gradientTransform="matrix(1.5716 0 0 1.582 -29.488 -8.1065)" gradientUnits="userSpaceOnUse"><stop stop-color="#c2e77a" offset="0"/><stop stop-color="#4bc623" offset="1"/></radialGradient><radialGradient id="radialGradient11" cx="50.088" cy="-3.6637" r="49.891" gradientTransform="matrix(1 0 0 1.0023 0 -.11427)" gradientUnits="userSpaceOnUse"><stop stop-color="#40c765" offset="0"/><stop stop-color="#195429" offset="1"/></radialGradient><linearGradient id="linearGradient16" x1="52.023" x2="51.145" y1="8.9998" y2="91.535" gradientUnits="userSpaceOnUse"><stop stop-color="#fff" stop-opacity=".41164" offset="0"/><stop stop-color="#fff" stop-opacity="0" offset="1"/></linearGradient></defs><rect x="1.6962" y="1.4875" width="96.783" height="97.011" rx="0" ry="27.438" fill="url(#radialGradient9)" stroke="url(#radialGradient11)" stroke-width="3"/><g style="mix-blend-mode:normal"><path d="m17.791 21.684c-2.6511 0.03647-4.9169 0.84022-6.2497 2.9843-2.9499 4.7454 7.4238 27.591 7.4238 27.591l0.01964 0.03772c-0.31804 2.3697-0.49351 4.8835-0.49351 7.5603 0 12.145 7.5996 21.865 30.247 21.865 23.088 0 30.921-10.093 31.705-21.865 0.15848-2.3825 0.11876-4.6534-0.07906-6.8228l0.02429-0.02791s10.299-22.969 7.3489-27.714c-4.2652-6.8611-18.083-1.19e-4 -23.515 1.8237l5.17e-4 1e-3c-9.0052-5.0642-20.155-5.5138-29.194-0.63454-3.7446-1.262-11.418-4.8782-17.237-4.7982zm46.323 16.701c0.23384-0.0021 0.46914 0.01657 0.70487 0.05891 4.1972 0.75395 6.1309 7.7608 6.1309 7.7608l-13.543-3.0654s3.1995-4.7222 6.7071-4.7542zm-31.222 0.24391c3.5076 0.03202 6.7066 4.7542 6.7066 4.7542l-13.543 3.0654s1.9342-7.0068 6.1314-7.7608c0.23573-0.04234 0.47103-0.06105 0.70487-0.05891zm15.675 4.1439c2.8354-0.0098 4.9935 1.7363 4.9935 1.7363l-4.2819 2.9156 0.08423 5.6684 10.118 7.4269-10.436-7.0435-9.2444 6.9277 9.077-7.2135-0.25942-5.7774-4.8514-2.6763c1.6441-1.4719 3.315-1.9591 4.8002-1.9642z" fill="#fff"/></g><rect x="4.1706" y="3.9511" width="91.754" height="91.754" rx="24.719" fill="url(#linearGradient16)"/></svg>
