<?xml version="1.0" encoding="UTF-8" standalone="no"?>
<!-- Created with Inkscape (http://www.inkscape.org/) -->

<svg
   width="100mm"
   height="100mm"
   viewBox="0 0 100 100"
   version="1.1"
   id="svg1"
   xml:space="preserve"
   inkscape:version="1.4 (86a8ad7, 2024-10-11)"
   sodipodi:docname="IconOG-alt.svg"
   inkscape:export-filename="BloodieysArtSVGAPP.png"
   inkscape:export-xdpi="260.09601"
   inkscape:export-ydpi="260.09601"
   xmlns:inkscape="http://www.inkscape.org/namespaces/inkscape"
   xmlns:sodipodi="http://sodipodi.sourceforge.net/DTD/sodipodi-0.dtd"
   xmlns="http://www.w3.org/2000/svg"
   xmlns:svg="http://www.w3.org/2000/svg"><sodipodi:namedview
     id="namedview1"
     pagecolor="#505050"
     bordercolor="#ffffff"
     borderopacity="1"
     inkscape:showpageshadow="0"
     inkscape:pageopacity="0"
     inkscape:pagecheckerboard="1"
     inkscape:deskcolor="#505050"
     inkscape:document-units="mm"
     inkscape:zoom="13.636961"
     inkscape:cx="362.21414"
     inkscape:cy="360.60088"
     inkscape:window-width="1920"
     inkscape:window-height="1017"
     inkscape:window-x="-8"
     inkscape:window-y="-8"
     inkscape:window-maximized="1"
     inkscape:current-layer="layer1"
     showguides="false"
     inkscape:lockguides="true" /><defs
     id="defs1" /><g
     inkscape:label="Capa 1"
     inkscape:groupmode="layer"
     id="layer1"
     inkscape:highlight-color="#3b80ee"><rect
       style="fill:#91d900;fill-opacity:1;stroke:none;stroke-width:3;stroke-dasharray:none;stroke-opacity:1"
       id="rect7"
       width="100.00361"
       height="100.02796"
       x="0.0082241558"
       y="-0.016122062"
       rx="0"
       ry="0" /></g><g
     inkscape:groupmode="layer"
     id="layer3"
     inkscape:label="Capa 3"
     style="stroke:none" /><g
     inkscape:groupmode="layer"
     id="layer2"
     inkscape:label="Capa 2"
     style="display:inline;mix-blend-mode:normal"><path
       id="path1-4"
       style="display:inline;opacity:1;fill:#ffffff;fill-opacity:1;stroke:none;stroke-width:0.264583"
       d="m 17.791299,21.684404 c -2.651143,0.03647 -4.916884,0.840222 -6.249748,2.984314 -2.9499256,4.745358 7.423836,27.590564 7.423836,27.590564 l 0.01964,0.03772 c -0.318045,2.369683 -0.49351,4.883484 -0.49351,7.560262 0,12.145375 7.599624,21.864816 30.246732,21.864816 23.088262,0 30.921485,-10.092624 31.704525,-21.864816 0.158475,-2.382507 0.11876,-4.653377 -0.07906,-6.822839 l 0.02429,-0.02791 c 0,0 10.298831,-22.968713 7.348905,-27.714071 -4.265163,-6.861097 -18.082822,-1.19e-4 -23.51536,1.823661 l 5.17e-4,10e-4 C 55.216822,22.05286 44.067222,21.603347 35.027973,26.482561 31.283417,25.220602 23.61023,21.604354 17.791299,21.684404 Z m 46.323271,16.70079 c 0.233841,-0.0021 0.469139,0.01657 0.704866,0.05891 4.197187,0.753946 6.130892,7.760767 6.130892,7.760767 L 57.407485,43.139426 c 0,0 3.199467,-4.722207 6.707085,-4.754232 z m -31.222384,0.243913 c 3.507618,0.03202 6.706567,4.754231 6.706567,4.754231 l -13.542842,3.065446 c 0,0 1.934221,-7.00682 6.131408,-7.760766 0.235727,-0.04234 0.471026,-0.06105 0.704867,-0.05891 z m 15.675012,4.143933 c 2.835367,-0.0098 4.993494,1.736328 4.993494,1.736328 l -4.281909,2.915584 0.08423,5.668388 10.117729,7.426937 -10.435539,-7.043498 -9.244397,6.927743 9.076966,-7.213513 -0.259416,-5.777426 -4.851384,-2.676322 c 1.644148,-1.471904 3.315032,-1.959083 4.800224,-1.964221 z" /></g></svg>
